<svg viewBox="0 0 320 320" xmlns="http://www.w3.org/2000/svg" role="img" aria-hidden="true">
    <circle cx="160" cy="160" r="158" fill="#F5EDE0"/>
    <circle cx="160" cy="160" r="158" fill="none" stroke="#EDE2CF" stroke-width="1.5"/>
    <circle cx="160" cy="160" r="140" fill="none" stroke="#A88652" stroke-width="1" stroke-dasharray="1 5" opacity=".55"/>
    <g transform="translate(148,240) rotate(-150)"><path d="M-45,0 Q0,-14 45,0 Q0,14 -45,0 Z" fill="#7C8B5D"/><path d="M-42,0 L42,0" stroke="rgba(0,0,0,.15)" stroke-width="1"/></g><g transform="translate(172,246) rotate(-25)"><path d="M-40,0 Q0,-13 40,0 Q0,13 -40,0 Z" fill="#7C8B5D"/><path d="M-37,0 L37,0" stroke="rgba(0,0,0,.15)" stroke-width="1"/></g><path d="M160,250 L166,150 L178,78" fill="none" stroke="#5F6D45" stroke-width="2.6" stroke-linecap="round"/><g transform="translate(176,92) rotate(-35)"><path d="M-17,0 Q0,-8 17,0 Q0,8 -17,0 Z" fill="#C9A876"/></g><g transform="translate(172,108) rotate(-145)"><path d="M-17,0 Q0,-8 17,0 Q0,8 -17,0 Z" fill="#C9A876"/></g><g transform="translate(180,108) rotate(-35)"><path d="M-17,0 Q0,-8 17,0 Q0,8 -17,0 Z" fill="#C9A876"/></g><g transform="translate(170,124) rotate(-145)"><path d="M-17,0 Q0,-8 17,0 Q0,8 -17,0 Z" fill="#C9A876"/></g><g transform="translate(180,122) rotate(-35)"><path d="M-17,0 Q0,-8 17,0 Q0,8 -17,0 Z" fill="#C9A876"/></g><g transform="translate(168,140) rotate(-145)"><path d="M-17,0 Q0,-8 17,0 Q0,8 -17,0 Z" fill="#C9A876"/></g><g transform="translate(178,140) rotate(-35)"><path d="M-17,0 Q0,-8 17,0 Q0,8 -17,0 Z" fill="#C9A876"/></g><g transform="translate(166,158) rotate(-145)"><path d="M-17,0 Q0,-8 17,0 Q0,8 -17,0 Z" fill="#C9A876"/></g><g transform="translate(176,156) rotate(-35)"><path d="M-17,0 Q0,-8 17,0 Q0,8 -17,0 Z" fill="#C9A876"/></g><g transform="translate(163,176) rotate(-145)"><path d="M-17,0 Q0,-8 17,0 Q0,8 -17,0 Z" fill="#C9A876"/></g>
  </svg>