<svg viewBox="0 0 320 320" xmlns="http://www.w3.org/2000/svg" role="img" aria-hidden="true">
    <circle cx="160" cy="160" r="158" fill="#F5EDE0"/>
    <circle cx="160" cy="160" r="158" fill="none" stroke="#EDE2CF" stroke-width="1.5"/>
    <circle cx="160" cy="160" r="140" fill="none" stroke="#E8C9C0" stroke-width="1" stroke-dasharray="1 5" opacity=".55"/>
    <path d="M160,250 L160,170 L160,90" fill="none" stroke="#5F6D45" stroke-width="2.8" stroke-linecap="round"/><g transform="translate(136,220) rotate(-20)"><path d="M-17,0 Q0,-12 17,0 Q0,12 -17,0 Z" fill="#41502E"/><path d="M-14,0 L14,0" stroke="rgba(0,0,0,.15)" stroke-width="1"/></g><g transform="translate(184,220) rotate(20)"><path d="M-17,0 Q0,-12 17,0 Q0,12 -17,0 Z" fill="#41502E"/><path d="M-14,0 L14,0" stroke="rgba(0,0,0,.15)" stroke-width="1"/></g><g transform="translate(136,200) rotate(-20)"><path d="M-17,0 Q0,-12 17,0 Q0,12 -17,0 Z" fill="#41502E"/><path d="M-14,0 L14,0" stroke="rgba(0,0,0,.15)" stroke-width="1"/></g><g transform="translate(184,200) rotate(20)"><path d="M-17,0 Q0,-12 17,0 Q0,12 -17,0 Z" fill="#41502E"/><path d="M-14,0 L14,0" stroke="rgba(0,0,0,.15)" stroke-width="1"/></g><g transform="translate(136,180) rotate(-20)"><path d="M-17,0 Q0,-12 17,0 Q0,12 -17,0 Z" fill="#41502E"/><path d="M-14,0 L14,0" stroke="rgba(0,0,0,.15)" stroke-width="1"/></g><g transform="translate(184,180) rotate(20)"><path d="M-17,0 Q0,-12 17,0 Q0,12 -17,0 Z" fill="#41502E"/><path d="M-14,0 L14,0" stroke="rgba(0,0,0,.15)" stroke-width="1"/></g><g transform="translate(136,160) rotate(-20)"><path d="M-17,0 Q0,-12 17,0 Q0,12 -17,0 Z" fill="#41502E"/><path d="M-14,0 L14,0" stroke="rgba(0,0,0,.15)" stroke-width="1"/></g><g transform="translate(184,160) rotate(20)"><path d="M-17,0 Q0,-12 17,0 Q0,12 -17,0 Z" fill="#41502E"/><path d="M-14,0 L14,0" stroke="rgba(0,0,0,.15)" stroke-width="1"/></g><g transform="translate(136,140) rotate(-20)"><path d="M-17,0 Q0,-12 17,0 Q0,12 -17,0 Z" fill="#41502E"/><path d="M-14,0 L14,0" stroke="rgba(0,0,0,.15)" stroke-width="1"/></g><g transform="translate(184,140) rotate(20)"><path d="M-17,0 Q0,-12 17,0 Q0,12 -17,0 Z" fill="#41502E"/><path d="M-14,0 L14,0" stroke="rgba(0,0,0,.15)" stroke-width="1"/></g><g transform="translate(136,120) rotate(-20)"><path d="M-17,0 Q0,-12 17,0 Q0,12 -17,0 Z" fill="#41502E"/><path d="M-14,0 L14,0" stroke="rgba(0,0,0,.15)" stroke-width="1"/></g><g transform="translate(184,120) rotate(20)"><path d="M-17,0 Q0,-12 17,0 Q0,12 -17,0 Z" fill="#41502E"/><path d="M-14,0 L14,0" stroke="rgba(0,0,0,.15)" stroke-width="1"/></g><g transform="translate(136,100) rotate(-20)"><path d="M-17,0 Q0,-12 17,0 Q0,12 -17,0 Z" fill="#41502E"/><path d="M-14,0 L14,0" stroke="rgba(0,0,0,.15)" stroke-width="1"/></g><g transform="translate(184,100) rotate(20)"><path d="M-17,0 Q0,-12 17,0 Q0,12 -17,0 Z" fill="#41502E"/><path d="M-14,0 L14,0" stroke="rgba(0,0,0,.15)" stroke-width="1"/></g><g><g transform="translate(120,110) rotate(0)"><path d="M-10,0 Q0,-8 10,0 Q0,8 -10,0 Z" fill="#E8C9C0"/></g><g transform="translate(120,110) rotate(72)"><path d="M-10,0 Q0,-8 10,0 Q0,8 -10,0 Z" fill="#E8C9C0"/></g><g transform="translate(120,110) rotate(144)"><path d="M-10,0 Q0,-8 10,0 Q0,8 -10,0 Z" fill="#E8C9C0"/></g><g transform="translate(120,110) rotate(216)"><path d="M-10,0 Q0,-8 10,0 Q0,8 -10,0 Z" fill="#E8C9C0"/></g><g transform="translate(120,110) rotate(288)"><path d="M-10,0 Q0,-8 10,0 Q0,8 -10,0 Z" fill="#E8C9C0"/></g><circle cx="120" cy="110" r="3" fill="#BE8B66"/></g><g><g transform="translate(205,135) rotate(0)"><path d="M-8.5,0 Q0,-6.8 8.5,0 Q0,6.8 -8.5,0 Z" fill="#E8C9C0"/></g><g transform="translate(205,135) rotate(72)"><path d="M-8.5,0 Q0,-6.8 8.5,0 Q0,6.8 -8.5,0 Z" fill="#E8C9C0"/></g><g transform="translate(205,135) rotate(144)"><path d="M-8.5,0 Q0,-6.8 8.5,0 Q0,6.8 -8.5,0 Z" fill="#E8C9C0"/></g><g transform="translate(205,135) rotate(216)"><path d="M-8.5,0 Q0,-6.8 8.5,0 Q0,6.8 -8.5,0 Z" fill="#E8C9C0"/></g><g transform="translate(205,135) rotate(288)"><path d="M-8.5,0 Q0,-6.8 8.5,0 Q0,6.8 -8.5,0 Z" fill="#E8C9C0"/></g><circle cx="205" cy="135" r="2.55" fill="#BE8B66"/></g>
  </svg>