<svg viewBox="0 0 320 320" xmlns="http://www.w3.org/2000/svg" role="img" aria-hidden="true">
    <circle cx="160" cy="160" r="158" fill="#F5EDE0"/>
    <circle cx="160" cy="160" r="158" fill="none" stroke="#EDE2CF" stroke-width="1.5"/>
    <circle cx="160" cy="160" r="140" fill="none" stroke="#7C8B5D" stroke-width="1" stroke-dasharray="1 5" opacity=".55"/>
    <g transform="translate(238,122) rotate(40)"><path d="M-23,0 Q0,-16 23,0 Q0,16 -23,0 Z" fill="#7C8B5D"/><path d="M-20,0 L20,0" stroke="rgba(0,0,0,.15)" stroke-width="1"/></g><path d="M232 96c14 -4 22 6 16 18c-6 11 -20 10 -20 -2" stroke="#7C8B5D" stroke-width="2.4" fill="none" stroke-linecap="round"/>
    <circle cx="160" cy="180" r="78" fill="#5F6D45"/>
    <circle cx="160" cy="180" r="68" fill="#E9EFE1"/>
    <circle cx="160" cy="180" r="40" fill="#fbfaf3"/><ellipse cx="186.0" cy="180.0" rx="6" ry="3" transform="rotate(90 186.0 180.0)" fill="#EDE2CF" stroke="#C9A876" stroke-width=".6"/><ellipse cx="179.9" cy="196.7" rx="6" ry="3" transform="rotate(130 179.9 196.7)" fill="#EDE2CF" stroke="#C9A876" stroke-width=".6"/><ellipse cx="164.5" cy="205.6" rx="6" ry="3" transform="rotate(170 164.5 205.6)" fill="#EDE2CF" stroke="#C9A876" stroke-width=".6"/><ellipse cx="147.0" cy="202.5" rx="6" ry="3" transform="rotate(210 147.0 202.5)" fill="#EDE2CF" stroke="#C9A876" stroke-width=".6"/><ellipse cx="135.6" cy="188.9" rx="6" ry="3" transform="rotate(250 135.6 188.9)" fill="#EDE2CF" stroke="#C9A876" stroke-width=".6"/><ellipse cx="135.6" cy="171.1" rx="6" ry="3" transform="rotate(290 135.6 171.1)" fill="#EDE2CF" stroke="#C9A876" stroke-width=".6"/><ellipse cx="147.0" cy="157.5" rx="6" ry="3" transform="rotate(330 147.0 157.5)" fill="#EDE2CF" stroke="#C9A876" stroke-width=".6"/><ellipse cx="164.5" cy="154.4" rx="6" ry="3" transform="rotate(370 164.5 154.4)" fill="#EDE2CF" stroke="#C9A876" stroke-width=".6"/><ellipse cx="179.9" cy="163.3" rx="6" ry="3" transform="rotate(410 179.9 163.3)" fill="#EDE2CF" stroke="#C9A876" stroke-width=".6"/>
  </svg>